D:\school\WTK\thesis\model\3dpredictsim\Results\debug_batch\Pog_s1_tmt_bCst_d05_k2000_ig24_act_TTC_GRF.mot
nRows=22
nColumns=19

name D:\school\WTK\thesis\model\3dpredictsim\Results\debug_batch\Pog_s1_tmt_bCst_d05_k2000_ig24_act_TTC_GRF.mot
datacolumns 19
datarows 22
range 0.0000000000 0.2529565911
endheader
time 	ground_force_vx	ground_force_vy	ground_force_vz	ground_force_px	ground_force_py	ground_force_pz	1_ground_force_vx	1_ground_force_vy	1_ground_force_vz	1_ground_force_px	1_ground_force_py	1_ground_force_pz	ground_torque_x	ground_torque_y	ground_torque_z	1_ground_torque_x	1_ground_torque_y	1_ground_torque_z
        0.0000000000	      -54.0393150256	       42.1524132764	       13.5358974816	        0.1861108497	        0.0000000000	        0.0511366351	      107.2833738376	      438.5406971426	       -1.1833123403	       -0.3478394395	        0.0000000000	       -0.0364689509	        0.0000000000	        0.0000000000	        0.0000000000	        0.0000000000	        0.0000000000	        0.0000000000	
        0.0120455520	     -122.6877459510	      125.4956881187	       44.2974901648	        0.1943250359	        0.0000000000	        0.0492301741	       75.4553333105	      337.7218359755	       -6.6743055890	       -0.3407394524	        0.0000000000	       -0.0337558717	        0.0000000000	        0.0000000000	        0.0000000000	        0.0000000000	        0.0000000000	        0.0000000000	
        0.0240911039	      -60.0000292237	      296.6810610665	       17.4757184285	        0.2000258026	        0.0000000000	        0.0473822833	       41.3766964503	      225.0334662904	      -13.7643327674	       -0.3279803585	        0.0000000000	       -0.0284901425	        0.0000000000	        0.0000000000	        0.0000000000	        0.0000000000	        0.0000000000	        0.0000000000	
        0.0361366559	      -54.6072255155	      492.0934732332	       -3.7502779072	        0.2033259217	        0.0000000000	        0.0472740446	       26.6213311576	      167.7728896941	      -15.5417865044	       -0.3193045768	        0.0000000000	       -0.0244419275	        0.0000000000	        0.0000000000	        0.0000000000	        0.0000000000	        0.0000000000	        0.0000000000	
        0.0481822078	      -96.5931236164	      703.9029064012	      -14.3209096799	        0.2120563628	        0.0000000000	        0.0492987833	       24.3805787007	      133.8770488671	      -13.9575929167	       -0.3189247326	        0.0000000000	       -0.0243958640	        0.0000000000	        0.0000000000	        0.0000000000	        0.0000000000	        0.0000000000	        0.0000000000	
        0.0602277598	     -129.4564080906	      848.2351489857	      -20.2668439024	        0.2200627413	        0.0000000000	        0.0512189518	       14.7856960392	       87.4855540154	      -14.0736672312	       -0.3186572381	        0.0000000000	       -0.0246314706	        0.0000000000	        0.0000000000	        0.0000000000	        0.0000000000	        0.0000000000	        0.0000000000	
        0.0722733117	     -138.5632109295	      886.2129632733	      -21.0963933262	        0.2253356566	        0.0000000000	        0.0523681921	        0.8881541608	       35.4583648173	       -8.7382920152	       -0.3190619877	        0.0000000000	       -0.0247874095	        0.0000000000	        0.0000000000	        0.0000000000	        0.0000000000	        0.0000000000	        0.0000000000	
        0.0843188637	     -130.4045732306	      868.9274521494	      -20.2027142987	        0.2291928976	        0.0000000000	        0.0530535012	        0.2923801664	       -0.2950767360	        0.0091142952	        0.0000000000	        0.0000000000	        0.0000000000	        0.0000000000	        0.0000000000	        0.0000000000	        0.0000000000	        0.0000000000	        0.0000000000	
        0.0963644156	     -114.8995678656	      828.4894623634	      -19.4804144291	        0.2328295568	        0.0000000000	        0.0534253568	        0.0017639484	       -0.0014224523	       -0.0001033659	        0.0000000000	        0.0000000000	        0.0000000000	        0.0000000000	        0.0000000000	        0.0000000000	        0.0000000000	        0.0000000000	        0.0000000000	
        0.1084099676	     -100.2325055617	      783.0926375013	      -18.6001487589	        0.2367217042	        0.0000000000	        0.0535450001	        0.0023404941	       -0.0016146173	       -0.0001742730	        0.0000000000	        0.0000000000	        0.0000000000	        0.0000000000	        0.0000000000	        0.0000000000	        0.0000000000	        0.0000000000	        0.0000000000	
        0.1204555196	      -88.3819294085	      744.0196400184	      -18.2165013413	        0.2411257773	        0.0000000000	        0.0534949242	        0.0283062121	       -0.0174033692	       -0.0022486795	        0.0000000000	        0.0000000000	        0.0000000000	        0.0000000000	        0.0000000000	        0.0000000000	        0.0000000000	        0.0000000000	        0.0000000000	
        0.1325010715	      -78.7302272063	      714.4738347084	      -18.0036877827	        0.2462182982	        0.0000000000	        0.0532650158	       -0.1634212549	        0.0918897713	        0.0132588336	        0.0000000000	        0.0000000000	        0.0000000000	        0.0000000000	        0.0000000000	        0.0000000000	        0.0000000000	        0.0000000000	        0.0000000000	
        0.1445466235	      -69.4645686850	      687.9031163503	      -18.6981817440	        0.2513548922	        0.0000000000	        0.0529691494	       -0.1330406750	        0.0703141959	        0.0103230806	        0.0000000000	        0.0000000000	        0.0000000000	        0.0000000000	        0.0000000000	        0.0000000000	        0.0000000000	        0.0000000000	        0.0000000000	
        0.1565921754	      -60.4465052174	      662.5975628706	      -19.4269095172	        0.2561760665	        0.0000000000	        0.0527432964	       -0.0775595956	        0.0389647410	        0.0058765618	        0.0000000000	        0.0000000000	        0.0000000000	        0.0000000000	        0.0000000000	        0.0000000000	        0.0000000000	        0.0000000000	        0.0000000000	
        0.1686377274	      -51.8841946685	      640.8985739046	      -19.6975139685	        0.2608062059	        0.0000000000	        0.0525987541	       -0.0521711224	        0.0251315781	        0.0038868775	        0.0000000000	        0.0000000000	        0.0000000000	        0.0000000000	        0.0000000000	        0.0000000000	        0.0000000000	        0.0000000000	        0.0000000000	
        0.1806832793	      -44.3086046864	      622.8085688880	      -20.1245489737	        0.2653917393	        0.0000000000	        0.0524952100	       -0.0436777504	        0.0203087634	        0.0032087404	        0.0000000000	        0.0000000000	        0.0000000000	        0.0000000000	        0.0000000000	        0.0000000000	        0.0000000000	        0.0000000000	        0.0000000000	
        0.1927288313	      -37.4816406992	      607.8758106099	      -20.1362500911	        0.2699160174	        0.0000000000	        0.0524205706	       -0.0454590722	        0.0205082732	        0.0032656606	        0.0000000000	        0.0000000000	        0.0000000000	        0.0000000000	        0.0000000000	        0.0000000000	        0.0000000000	        0.0000000000	        0.0000000000	
        0.2047743833	      -30.9207198201	      596.4275084040	      -20.0463377289	        0.2746917423	        0.0000000000	        0.0523283243	       -0.0574782607	        0.0252478782	        0.0040191527	        0.0000000000	        0.0000000000	        0.0000000000	        0.0000000000	        0.0000000000	        0.0000000000	        0.0000000000	        0.0000000000	        0.0000000000	
        0.2168199352	      -25.6915424801	      588.3303885864	      -19.8445789040	        0.2798853492	        0.0000000000	        0.0521749298	       -0.0854839201	        0.0366391188	        0.0057859660	        0.0000000000	        0.0000000000	        0.0000000000	        0.0000000000	        0.0000000000	        0.0000000000	        0.0000000000	        0.0000000000	        0.0000000000	
        0.2288654872	      -21.8337259609	      583.5456427008	      -19.7028351056	        0.2854280029	        0.0000000000	        0.0519420550	       -0.1423319085	        0.0596511271	        0.0092686312	        0.0000000000	        0.0000000000	        0.0000000000	        0.0000000000	        0.0000000000	        0.0000000000	        0.0000000000	        0.0000000000	        0.0000000000	
        0.2409110391	      -18.5366977035	      581.3749348328	      -19.7067687280	        0.2912513878	        0.0000000000	        0.0516278254	       -0.2497839439	        0.1026067652	        0.0156078958	        0.0000000000	        0.0000000000	        0.0000000000	        0.0000000000	        0.0000000000	        0.0000000000	        0.0000000000	        0.0000000000	        0.0000000000	
        0.2529565911	      -15.6581021849	      580.6179776959	      -19.6417269741	        0.2972245223	        0.0000000000	        0.0512511003	       -0.4347287959	        0.1754801412	        0.0260142948	        0.0000000000	        0.0000000000	        0.0000000000	        0.0000000000	        0.0000000000	        0.0000000000	        0.0000000000	        0.0000000000	        0.0000000000	
